<svg width="304" height="45" viewBox="0 0 304 45" fill="none" xmlns="http://www.w3.org/2000/svg">
    <g clip-path="url(#clip0_2_59)">
        <path d="M43.4151 35.5263V45H53.6624L78 22.5L53.6624 0L43.4151 8.83621e-07V9.47366L57.5052 22.5L43.4151 35.5263Z" fill="#007A80"/>
        <path d="M34.5849 9.47366V0H24.3376L0 22.5L24.3376 45H34.5849V35.5264L20.4948 22.5L34.5849 9.47366Z" fill="#007A80"/>
    </g>
    <path d="M98.9297 36V8.07031H112.016C117.328 8.07031 119.984 10.2383 119.984 14.5742C119.984 17.7513 118.253 20.0234 114.789 21.3906C118.487 22.0807 120.336 24.1966 120.336 27.7383C120.336 33.2461 117.426 36 111.605 36H98.9297ZM111.391 31.5078C113.682 31.5078 114.828 30.3359 114.828 27.9922C114.828 25.0885 113.116 23.6367 109.691 23.6367H108.129V20.2969C112.426 19.5807 114.574 17.7839 114.574 14.9062C114.574 13.3438 113.611 12.5625 111.684 12.5625H104.105V31.5078H111.391ZM124.262 36V15.4922H128.266L128.91 18.1094C130.707 16.3646 132.608 15.4922 134.613 15.4922V19.6719C132.686 19.6719 130.961 20.4727 129.438 22.0742V36H124.262ZM136.566 29.6133C136.566 25.5378 139.535 23.5 145.473 23.5C146.866 23.5 148.259 23.6302 149.652 23.8906V22.3477C149.652 20.5117 148.331 19.5938 145.688 19.5938C143.448 19.5938 140.961 19.9193 138.227 20.5703V16.4688C140.961 15.8177 143.448 15.4922 145.688 15.4922C151.781 15.4922 154.828 17.7448 154.828 22.25V36H151.82L149.984 34.1641C148.201 35.388 146.234 36 144.086 36C139.073 36 136.566 33.8711 136.566 29.6133ZM149.652 27.4062C148.35 27.1458 146.957 27.0156 145.473 27.0156C142.986 27.0156 141.742 27.862 141.742 29.5547C141.742 31.3776 142.784 32.2891 144.867 32.2891C146.586 32.2891 148.181 31.7552 149.652 30.6875V27.4062ZM159.73 36V15.4922H163.734L164.379 18.5C166.345 16.4948 168.585 15.4922 171.098 15.4922C175.954 15.4922 178.383 18.0182 178.383 23.0703V36H173.207V23.0703C173.207 20.8047 172.081 19.6719 169.828 19.6719C168.148 19.6719 166.508 20.3424 164.906 21.6836V36H159.73ZM196.273 20.8438C195.206 20.1406 193.865 19.7891 192.25 19.7891C189.034 19.7891 187.426 21.5924 187.426 25.1992C187.426 29.4831 189.099 31.625 192.445 31.625C193.799 31.625 195.076 31.4362 196.273 31.0586V20.8438ZM201.449 34.7695C198.311 35.5898 195.245 36 192.25 36C185.622 36 182.309 32.4453 182.309 25.3359C182.309 18.7734 185.551 15.4922 192.035 15.4922C193.415 15.4922 194.828 15.8177 196.273 16.4688V8.07031H201.449V34.7695ZM220.785 8.07031V31.5078H231.879V36H215.609V8.07031H220.785ZM240.492 25.668C240.492 29.9518 242.152 32.0938 245.473 32.0938C248.793 32.0938 250.453 29.9518 250.453 25.668C250.453 21.4883 248.793 19.3984 245.473 19.3984C242.152 19.3984 240.492 21.4883 240.492 25.668ZM235.316 25.7461C235.316 18.8711 238.702 15.4336 245.473 15.4336C252.243 15.4336 255.629 18.8711 255.629 25.7461C255.629 32.6081 252.243 36.0391 245.473 36.0391C238.728 36.0391 235.342 32.6081 235.316 25.7461ZM272.66 20.1406C271.814 19.8281 270.609 19.6719 269.047 19.6719C265.466 19.6719 263.676 21.6445 263.676 25.5898C263.676 29.4049 265.219 31.3125 268.305 31.3125C269.789 31.3125 271.241 30.9609 272.66 30.2578V20.1406ZM277.836 34.4375C277.836 40.4271 274.236 43.4219 267.035 43.4219C264.509 43.4219 262.27 43.0964 260.316 42.4453V38.3438C262.309 38.9948 264.561 39.3203 267.074 39.3203C270.798 39.3203 272.66 37.7578 272.66 34.6328C271.124 35.2839 269.47 35.6094 267.699 35.6094C261.605 35.6094 258.559 32.2826 258.559 25.6289C258.559 18.8711 262.107 15.4922 269.203 15.4922C271.586 15.4922 274.464 15.7721 277.836 16.332V34.4375ZM286.938 25.668C286.938 29.9518 288.598 32.0938 291.918 32.0938C295.238 32.0938 296.898 29.9518 296.898 25.668C296.898 21.4883 295.238 19.3984 291.918 19.3984C288.598 19.3984 286.938 21.4883 286.938 25.668ZM281.762 25.7461C281.762 18.8711 285.147 15.4336 291.918 15.4336C298.689 15.4336 302.074 18.8711 302.074 25.7461C302.074 32.6081 298.689 36.0391 291.918 36.0391C285.173 36.0391 281.788 32.6081 281.762 25.7461Z" fill="#007A80"/>
    <defs>
        <clipPath id="clip0_2_59">
            <rect width="78" height="45" fill="white"/>
        </clipPath>
    </defs>
</svg>
